<svg xmlns="http://www.w3.org/2000/svg" width="18" height="19" fill="none" viewBox="0 0 18 19"><path fill="#fff" fill-opacity="0.5" d="M5.836 6.336q1.328-1.328 3.203-1.328t3.164 1.328q1.328 1.29 1.328 3.164t-1.328 3.203q-1.29 1.29-3.164 1.29t-3.203-1.29q-1.29-1.328-1.29-3.203t1.29-3.164m1.133 5.234q.86.86 2.07.86 1.211 0 2.07-.86.86-.86.86-2.07t-.86-2.07a2.82 2.82 0 0 0-2.07-.86q-1.21 0-2.07.86a2.82 2.82 0 0 0-.86 2.07q0 1.21.86 2.07m7.46-7.46a.9.9 0 0 1 .313.702q0 .43-.312.743a.9.9 0 0 1-.703.312q-.43 0-.743-.312a1 1 0 0 1-.312-.742q0-.43.312-.704.313-.312.743-.312.429 0 .703.312m3.321 1.796q.04 1.055.04 3.594t-.04 3.594q-.117 2.382-1.445 3.71-1.29 1.29-3.672 1.368-1.055.078-3.594.078t-3.594-.078q-2.382-.117-3.672-1.406a3.8 3.8 0 0 1-.82-1.094 6.4 6.4 0 0 1-.469-1.211 7 7 0 0 1-.117-1.367Q.29 12.04.29 9.5t.078-3.633q.117-2.343 1.406-3.633Q3.063.906 5.445.79 6.5.75 9.04.75t3.594.04q2.382.116 3.672 1.444 1.328 1.29 1.445 3.672m-1.875 8.75q.117-.312.195-.781.078-.508.117-1.172.04-.703.04-1.133V7.43q0-.43-.04-1.094-.039-.704-.117-1.172a4.2 4.2 0 0 0-.195-.82 2.82 2.82 0 0 0-1.68-1.68 4.2 4.2 0 0 0-.82-.195 11 11 0 0 0-1.172-.117q-.664-.04-1.094-.04H6.97q-.43 0-1.133.04a13 13 0 0 0-1.172.117 4.3 4.3 0 0 0-.781.195 2.82 2.82 0 0 0-1.68 1.68 4.2 4.2 0 0 0-.195.82q-.078.469-.117 1.172Q1.85 7 1.85 7.43v4.687q.04.586.079 1.016a10.4 10.4 0 0 0 .273 1.523q.509 1.21 1.68 1.68.313.117.781.195.509.078 1.172.117.703.04 1.094.04h4.179q.43 0 1.094-.04.704-.039 1.172-.117.507-.078.82-.195 1.211-.508 1.68-1.68"/></svg>